<!--
  IMPORTANT:
  1. Ensure each SVG element has a unique ID.
  2. Ensure each SVG element has a `viewBox` attribute.
  3. Remove the `width` and `height` attributes from each SVG element.
 -->

<svg width="0" height="0" class="hidden">

  <svg id="icon-hide-pass" viewBox="0 0 32 32" fill="none" xmlns="http://www.w3.org/2000/svg">
    <path
      d="M28.5 21.8749C28.3858 21.9401 28.2598 21.982 28.1294 21.9984C27.9989 22.0148 27.8665 22.0054 27.7397 21.9705C27.6129 21.9357 27.4943 21.8762 27.3905 21.7955C27.2867 21.7147 27.1999 21.6143 27.135 21.4999L24.76 17.3499C23.3792 18.2835 21.8561 18.9868 20.25 19.4324L20.9837 23.8349C21.0054 23.9645 21.0013 24.0971 20.9717 24.2252C20.942 24.3532 20.8875 24.4741 20.8111 24.581C20.7347 24.6879 20.638 24.7788 20.5265 24.8483C20.415 24.9178 20.2909 24.9647 20.1612 24.9862C20.1079 24.9949 20.054 24.9995 20 24.9999C19.7634 24.9996 19.5346 24.9154 19.3543 24.7623C19.174 24.6092 19.0537 24.3971 19.015 24.1637L18.2937 19.8412C16.7727 20.0529 15.2298 20.0529 13.7087 19.8412L12.9875 24.1637C12.9487 24.3975 12.8281 24.6099 12.6472 24.7631C12.4664 24.9162 12.237 25.0002 12 24.9999C11.9447 24.9997 11.8895 24.9951 11.835 24.9862C11.7054 24.9647 11.5813 24.9178 11.4698 24.8483C11.3583 24.7788 11.2615 24.6879 11.1852 24.581C11.1088 24.4741 11.0542 24.3532 11.0246 24.2252C10.995 24.0971 10.9908 23.9645 11.0125 23.8349L11.75 19.4324C10.1445 18.9854 8.62225 18.2809 7.2425 17.3462L4.875 21.4999C4.74239 21.731 4.52342 21.8999 4.26626 21.9696C4.0091 22.0392 3.73482 22.0038 3.50375 21.8712C3.27268 21.7386 3.10375 21.5196 3.03413 21.2625C2.9645 21.0053 2.99989 20.731 3.1325 20.4999L5.6325 16.1249C4.75437 15.3663 3.94689 14.5295 3.22 13.6249C3.12935 13.5237 3.06027 13.4051 3.01699 13.2763C2.97371 13.1475 2.95713 13.0112 2.96827 12.8758C2.9794 12.7404 3.01802 12.6087 3.08176 12.4887C3.1455 12.3687 3.23302 12.2629 3.33899 12.1779C3.44496 12.0928 3.56714 12.0303 3.69809 11.994C3.82904 11.9578 3.96601 11.9486 4.10063 11.967C4.23524 11.9855 4.36469 12.0311 4.48107 12.1013C4.59744 12.1714 4.69831 12.2645 4.7775 12.3749C6.8525 14.9424 10.4825 17.9999 16 17.9999C21.5175 17.9999 25.1475 14.9387 27.2225 12.3749C27.3008 12.2623 27.4014 12.1669 27.5181 12.0948C27.6349 12.0227 27.7652 11.9754 27.901 11.9558C28.0368 11.9362 28.1751 11.9448 28.3075 11.981C28.4398 12.0172 28.5633 12.0802 28.6702 12.1662C28.7772 12.2521 28.8653 12.3592 28.9291 12.4806C28.9929 12.6021 29.031 12.7354 29.041 12.8722C29.0511 13.0091 29.0329 13.1465 28.9875 13.276C28.9422 13.4055 28.8707 13.5243 28.7775 13.6249C28.0506 14.5295 27.2431 15.3663 26.365 16.1249L28.865 20.4999C28.9321 20.614 28.9759 20.7402 28.9939 20.8713C29.0119 21.0024 29.0036 21.1358 28.9697 21.2637C28.9357 21.3916 28.8767 21.5115 28.7961 21.6164C28.7155 21.7213 28.6148 21.8092 28.5 21.8749Z"
      fill="#343330" />
  </svg>


  <svg id="icon-show-pass" viewBox="0 0 32 32" fill="none" xmlns="http://www.w3.org/2000/svg">
    <path
      d="M30.9137 15.595C30.87 15.4963 29.8112 13.1475 27.4575 10.7937C24.3212 7.6575 20.36 6 16 6C11.64 6 7.67874 7.6575 4.54249 10.7937C2.18874 13.1475 1.12499 15.5 1.08624 15.595C1.02938 15.7229 1 15.8613 1 16.0012C1 16.1412 1.02938 16.2796 1.08624 16.4075C1.12999 16.5062 2.18874 18.8538 4.54249 21.2075C7.67874 24.3425 11.64 26 16 26C20.36 26 24.3212 24.3425 27.4575 21.2075C29.8112 18.8538 30.87 16.5062 30.9137 16.4075C30.9706 16.2796 31 16.1412 31 16.0012C31 15.8613 30.9706 15.7229 30.9137 15.595ZM16 24C12.1525 24 8.79124 22.6012 6.00874 19.8438C4.86704 18.7084 3.89572 17.4137 3.12499 16C3.89551 14.5862 4.86686 13.2915 6.00874 12.1562C8.79124 9.39875 12.1525 8 16 8C19.8475 8 23.2087 9.39875 25.9912 12.1562C27.1352 13.2912 28.1086 14.5859 28.8812 16C27.98 17.6825 24.0537 24 16 24ZM16 10C14.8133 10 13.6533 10.3519 12.6666 11.0112C11.6799 11.6705 10.9108 12.6075 10.4567 13.7039C10.0026 14.8003 9.88377 16.0067 10.1153 17.1705C10.3468 18.3344 10.9182 19.4035 11.7573 20.2426C12.5965 21.0818 13.6656 21.6532 14.8294 21.8847C15.9933 22.1162 17.1997 21.9974 18.2961 21.5433C19.3924 21.0892 20.3295 20.3201 20.9888 19.3334C21.6481 18.3467 22 17.1867 22 16C21.9983 14.4092 21.3657 12.884 20.2408 11.7592C19.1159 10.6343 17.5908 10.0017 16 10ZM16 20C15.2089 20 14.4355 19.7654 13.7777 19.3259C13.1199 18.8864 12.6072 18.2616 12.3045 17.5307C12.0017 16.7998 11.9225 15.9956 12.0768 15.2196C12.2312 14.4437 12.6122 13.731 13.1716 13.1716C13.731 12.6122 14.4437 12.2312 15.2196 12.0769C15.9956 11.9225 16.7998 12.0017 17.5307 12.3045C18.2616 12.6072 18.8863 13.1199 19.3259 13.7777C19.7654 14.4355 20 15.2089 20 16C20 17.0609 19.5786 18.0783 18.8284 18.8284C18.0783 19.5786 17.0609 20 16 20Z"
      fill="#343330" />
  </svg>


  <svg id="icon-home" viewBox="0 0 32 32" fill="none" xmlns="http://www.w3.org/2000/svg">
    <path
      d="M27.3538 12.9712L17.3538 3.5362C17.3489 3.53193 17.3443 3.52734 17.34 3.52245C16.9718 3.18762 16.492 3.00208 15.9944 3.00208C15.4967 3.00208 15.0169 3.18762 14.6488 3.52245L14.635 3.5362L4.64625 12.9712C4.4425 13.1586 4.27985 13.3862 4.16861 13.6396C4.05737 13.8931 3.99996 14.1669 4 14.4437V25.9999C4 26.5304 4.21071 27.0391 4.58579 27.4142C4.96086 27.7892 5.46957 27.9999 6 27.9999H26C26.5304 27.9999 27.0391 27.7892 27.4142 27.4142C27.7893 27.0391 28 26.5304 28 25.9999V14.4437C28 14.1669 27.9426 13.8931 27.8314 13.6396C27.7201 13.3862 27.5575 13.1586 27.3538 12.9712ZM26 25.9999H6V14.4437L6.01375 14.4312L16 4.99995L25.9875 14.4287L26.0012 14.4412L26 25.9999Z"
      fill="#343330" />
  </svg>


  <svg id="icon-bg" viewBox="0 0 51 51" fill="none" xmlns="http://www.w3.org/2000/svg">
    <g clip-path="url(#clip0_1_3676)">
      <path
        d="M0.426857 30.9131H50.4268V40.9705C50.4268 41.4466 50.0407 41.8326 49.5647 41.8326H1.28896C0.812891 41.8326 0.426857 41.4466 0.426857 40.9705V30.9131Z"
        fill="#FF4B55" />
      <path
        d="M1.28896 9.07407H49.5648C50.0408 9.07407 50.4269 9.4601 50.4269 9.93617V19.9936H0.426857V9.93617C0.426857 9.4601 0.812891 9.07407 1.28896 9.07407Z"
        fill="#F5F5F5" />
      <path d="M50.4268 19.9934H0.426857V30.9123H50.4268V19.9934Z" fill="#73AF00" />
    </g>
    <defs>
      <clipPath id="clip0_1_3676">
        <rect width="50" height="50" fill="white" transform="translate(0.427734 0.453369)" />
      </clipPath>
    </defs>
  </svg>


  <svg id="icon-en" viewBox="0 0 51 51" fill="none" xmlns="http://www.w3.org/2000/svg">
    <g clip-path="url(#clip0_1_429)">
      <path
        d="M49.6501 41.4097H1.37456C0.898485 41.4097 0.512451 41.0237 0.512451 40.5476V9.51323C0.512451 9.03716 0.898485 8.65112 1.37456 8.65112H49.6502C50.1263 8.65112 50.5123 9.03716 50.5123 9.51323V40.5476C50.5122 41.0237 50.1262 41.4097 49.6501 41.4097Z"
        fill="#41479B" />
      <path
        d="M50.5123 9.51323C50.5123 9.03716 50.1262 8.65112 49.6501 8.65112H45.7932L29.8226 19.1147V8.65112H21.2019V19.1147L5.23138 8.65112H1.37456C0.898485 8.65112 0.512451 9.03716 0.512451 9.51323V11.7428L14.2144 20.72H0.512451V29.3407H14.2144L0.512451 38.318V40.5476C0.512451 41.0237 0.898485 41.4097 1.37456 41.4097H5.23148L21.2021 30.9462V41.4097H29.8228V30.9462L45.7934 41.4097H49.6503C50.1264 41.4097 50.5125 41.0237 50.5125 40.5476V38.318L36.8105 29.3408H50.5123V20.7201H36.8103L50.5123 11.7428V9.51323Z"
        fill="#F5F5F5" />
      <path
        d="M50.5123 22.4442H28.0986V8.65112H22.9261V22.4442H0.512451V27.6166H22.9261V41.4097H28.0986V27.6166H50.5123V22.4442Z"
        fill="#FF4B55" />
      <path
        d="M17.988 29.3408L0.537109 40.6686C0.598144 41.0849 0.941405 41.4098 1.3747 41.4098H2.5621L21.1548 29.3409H17.988V29.3408Z"
        fill="#FF4B55" />
      <path
        d="M34.3399 29.3408H31.1731L49.7388 41.3919C50.1715 41.3458 50.513 40.9925 50.513 40.5476V39.8388L34.3399 29.3408Z"
        fill="#FF4B55" />
      <path
        d="M0.513184 10.465L16.3119 20.7202H19.4786L1.01543 8.73529C0.720507 8.8723 0.513184 9.16673 0.513184 9.51331V10.465Z"
        fill="#FF4B55" />
      <path
        d="M32.9903 20.7203L50.4831 9.36513C50.4104 8.9626 50.0745 8.65137 49.651 8.65137H48.4159L29.8235 20.7203H32.9903Z"
        fill="#FF4B55" />
    </g>
    <defs>
      <clipPath id="clip0_1_429">
        <rect width="50" height="50" fill="white" transform="translate(0.511719 0.0305176)" />
      </clipPath>
    </defs>
  </svg>


  <svg id="icon-user-profile" viewBox="0 0 32 32" fill="none" xmlns="http://www.w3.org/2000/svg">
    <path
      d="M16 3C13.4288 3 10.9154 3.76244 8.77759 5.1909C6.63975 6.61935 4.97351 8.64968 3.98957 11.0251C3.00563 13.4006 2.74819 16.0144 3.2498 18.5362C3.75141 21.0579 4.98953 23.3743 6.80762 25.1924C8.6257 27.0105 10.9421 28.2486 13.4638 28.7502C15.9856 29.2518 18.5995 28.9944 20.9749 28.0104C23.3503 27.0265 25.3807 25.3603 26.8091 23.2224C28.2376 21.0846 29 18.5712 29 16C28.9964 12.5533 27.6256 9.24882 25.1884 6.81163C22.7512 4.37445 19.4467 3.00364 16 3ZM9.26001 24.6875C9.98342 23.5561 10.98 22.625 12.1579 21.9801C13.3358 21.3351 14.6571 20.9971 16 20.9971C17.3429 20.9971 18.6642 21.3351 19.8421 21.9801C21.02 22.625 22.0166 23.5561 22.74 24.6875C20.8129 26.1862 18.4413 26.9999 16 26.9999C13.5587 26.9999 11.1871 26.1862 9.26001 24.6875ZM12 15C12 14.2089 12.2346 13.4355 12.6741 12.7777C13.1137 12.1199 13.7384 11.6072 14.4693 11.3045C15.2002 11.0017 16.0044 10.9225 16.7804 11.0769C17.5563 11.2312 18.269 11.6122 18.8284 12.1716C19.3878 12.731 19.7688 13.4437 19.9231 14.2196C20.0775 14.9956 19.9983 15.7998 19.6955 16.5307C19.3928 17.2616 18.8801 17.8864 18.2223 18.3259C17.5645 18.7654 16.7911 19 16 19C14.9391 19 13.9217 18.5786 13.1716 17.8284C12.4214 17.0783 12 16.0609 12 15ZM24.22 23.3013C23.1047 21.6851 21.5365 20.4348 19.7125 19.7075C20.6923 18.9358 21.4072 17.878 21.7579 16.6811C22.1086 15.4843 22.0776 14.2079 21.6693 13.0294C21.2609 11.851 20.4955 10.8291 19.4794 10.1059C18.4634 9.38262 17.2472 8.99397 16 8.99397C14.7528 8.99397 13.5366 9.38262 12.5206 10.1059C11.5045 10.8291 10.7391 11.851 10.3307 13.0294C9.92238 14.2079 9.8914 15.4843 10.2421 16.6811C10.5928 17.878 11.3077 18.9358 12.2875 19.7075C10.4635 20.4348 8.89529 21.6851 7.78001 23.3013C6.37072 21.7165 5.4496 19.7581 5.12756 17.6619C4.80553 15.5657 5.09631 13.4211 5.9649 11.4864C6.83349 9.55163 8.24285 7.90922 10.0233 6.75692C11.8037 5.60462 13.8792 4.99156 16 4.99156C18.1208 4.99156 20.1963 5.60462 21.9768 6.75692C23.7572 7.90922 25.1665 9.55163 26.0351 11.4864C26.9037 13.4211 27.1945 15.5657 26.8724 17.6619C26.5504 19.7581 25.6293 21.7165 24.22 23.3013Z"
      fill="#343330" />
  </svg>


  <svg xmlns="http://www.w3.org/2000/svg" id="icon-cart" viewBox="0 0 32 32" fill="none">
    <path
      d="M12 27C12 27.3956 11.8827 27.7822 11.6629 28.1111C11.4432 28.44 11.1308 28.6964 10.7654 28.8478C10.3999 28.9991 9.99778 29.0387 9.60982 28.9616C9.22186 28.8844 8.86549 28.6939 8.58579 28.4142C8.30608 28.1345 8.1156 27.7781 8.03843 27.3902C7.96126 27.0022 8.00087 26.6001 8.15224 26.2346C8.30362 25.8692 8.55996 25.5568 8.88886 25.3371C9.21776 25.1173 9.60444 25 10 25C10.5304 25 11.0391 25.2107 11.4142 25.5858C11.7893 25.9609 12 26.4696 12 27ZM23 25C22.6044 25 22.2178 25.1173 21.8889 25.3371C21.56 25.5568 21.3036 25.8692 21.1522 26.2346C21.0009 26.6001 20.9613 27.0022 21.0384 27.3902C21.1156 27.7781 21.3061 28.1345 21.5858 28.4142C21.8655 28.6939 22.2219 28.8844 22.6098 28.9616C22.9978 29.0387 23.3999 28.9991 23.7654 28.8478C24.1308 28.6964 24.4432 28.44 24.6629 28.1111C24.8827 27.7822 25 27.3956 25 27C25 26.4696 24.7893 25.9609 24.4142 25.5858C24.0391 25.2107 23.5304 25 23 25ZM28.9562 9.29375L25.39 20.8825C25.2032 21.4968 24.8234 22.0346 24.3068 22.416C23.7903 22.7975 23.1646 23.0022 22.5225 23H10.5087C9.85747 22.9976 9.2245 22.7842 8.70463 22.3919C8.18477 21.9996 7.80598 21.4494 7.625 20.8237L3.1025 5H1C0.734784 5 0.48043 4.89464 0.292893 4.70711C0.105357 4.51957 0 4.26522 0 4C0 3.73478 0.105357 3.48043 0.292893 3.29289C0.48043 3.10536 0.734784 3 1 3H3.1025C3.53676 3.00144 3.95888 3.14349 4.30567 3.40487C4.65246 3.66626 4.90526 4.03293 5.02625 4.45L6.04 8H28C28.1565 7.99994 28.3108 8.03661 28.4505 8.10706C28.5903 8.17751 28.7115 8.27976 28.8045 8.40561C28.8976 8.53145 28.9597 8.67737 28.9861 8.83163C29.0124 8.98588 29.0022 9.14417 28.9562 9.29375ZM26.6462 10H6.61125L9.5475 20.275C9.60724 20.4839 9.73336 20.6676 9.90679 20.7984C10.0802 20.9292 10.2915 21 10.5087 21H22.5225C22.7365 21.0001 22.9448 20.9315 23.117 20.8044C23.2891 20.6773 23.4159 20.4983 23.4788 20.2938L26.6462 10Z"
      fill="#343330" />
  </svg>

  <svg xmlns="http://www.w3.org/2000/svg" id="icon-profile" viewBox="0 0 100 100" fill="none">
    <path
      d="M50 10C27.92 10 10 27.92 10 50C10 72.08 27.92 90 50 90C72.08 90 90 72.08 90 50C90 27.92 72.08 10 50 10ZM50 22C56.64 22 62 27.36 62 34C62 40.64 56.64 46 50 46C43.36 46 38 40.64 38 34C38 27.36 43.36 22 50 22ZM50 78.8C45.2474 78.8 40.5687 77.6239 36.3811 75.3766C32.1935 73.1292 28.6271 69.8804 26 65.92C26.12 57.96 42 53.6 50 53.6C57.96 53.6 73.88 57.96 74 65.92C71.3729 69.8804 67.8065 73.1292 63.6189 75.3766C59.4313 77.6239 54.7526 78.8 50 78.8Z"
      fill="white" />
  </svg>

  <svg id="icon-en" viewBox="0 0 51 51" fill="none" xmlns="http://www.w3.org/2000/svg">
    <g clip-path="url(#clip0_1_429)">
      <path
        d="M49.6501 41.4097H1.37456C0.898485 41.4097 0.512451 41.0237 0.512451 40.5476V9.51323C0.512451 9.03716 0.898485 8.65112 1.37456 8.65112H49.6502C50.1263 8.65112 50.5123 9.03716 50.5123 9.51323V40.5476C50.5122 41.0237 50.1262 41.4097 49.6501 41.4097Z"
        fill="#41479B" />
      <path
        d="M50.5123 9.51323C50.5123 9.03716 50.1262 8.65112 49.6501 8.65112H45.7932L29.8226 19.1147V8.65112H21.2019V19.1147L5.23138 8.65112H1.37456C0.898485 8.65112 0.512451 9.03716 0.512451 9.51323V11.7428L14.2144 20.72H0.512451V29.3407H14.2144L0.512451 38.318V40.5476C0.512451 41.0237 0.898485 41.4097 1.37456 41.4097H5.23148L21.2021 30.9462V41.4097H29.8228V30.9462L45.7934 41.4097H49.6503C50.1264 41.4097 50.5125 41.0237 50.5125 40.5476V38.318L36.8105 29.3408H50.5123V20.7201H36.8103L50.5123 11.7428V9.51323Z"
        fill="#F5F5F5" />
      <path
        d="M50.5123 22.4442H28.0986V8.65112H22.9261V22.4442H0.512451V27.6166H22.9261V41.4097H28.0986V27.6166H50.5123V22.4442Z"
        fill="#FF4B55" />
      <path
        d="M17.988 29.3408L0.537109 40.6686C0.598144 41.0849 0.941405 41.4098 1.3747 41.4098H2.5621L21.1548 29.3409H17.988V29.3408Z"
        fill="#FF4B55" />
      <path
        d="M34.3399 29.3408H31.1731L49.7388 41.3919C50.1715 41.3458 50.513 40.9925 50.513 40.5476V39.8388L34.3399 29.3408Z"
        fill="#FF4B55" />
      <path
        d="M0.513184 10.465L16.3119 20.7202H19.4786L1.01543 8.73529C0.720507 8.8723 0.513184 9.16673 0.513184 9.51331V10.465Z"
        fill="#FF4B55" />
      <path
        d="M32.9903 20.7203L50.4831 9.36513C50.4104 8.9626 50.0745 8.65137 49.651 8.65137H48.4159L29.8235 20.7203H32.9903Z"
        fill="#FF4B55" />
    </g>
    <defs>
      <clipPath id="clip0_1_429">
        <rect width="50" height="50" fill="white" transform="translate(0.511719 0.0305176)" />
      </clipPath>
    </defs>
  </svg>


  <svg xmlns="http://www.w3.org/2000/svg" id="icon-bg" viewBox="0 0 51 51" fill="none">
    <g clip-path="url(#clip0_1_3676)">
      <path
        d="M0.426857 30.9131H50.4268V40.9705C50.4268 41.4466 50.0407 41.8326 49.5647 41.8326H1.28896C0.812891 41.8326 0.426857 41.4466 0.426857 40.9705V30.9131Z"
        fill="#FF4B55" />
      <path
        d="M1.28896 9.07407H49.5648C50.0408 9.07407 50.4269 9.4601 50.4269 9.93617V19.9936H0.426857V9.93617C0.426857 9.4601 0.812891 9.07407 1.28896 9.07407Z"
        fill="#F5F5F5" />
      <path d="M50.4268 19.9934H0.426857V30.9123H50.4268V19.9934Z" fill="#73AF00" />
    </g>
    <defs>
      <clipPath id="clip0_1_3676">
        <rect width="50" height="50" fill="white" transform="translate(0.427734 0.453369)" />
      </clipPath>
    </defs>
  </svg>

  <svg xmlns="http://www.w3.org/2000/svg" id="icon-menu" viewBox="0 0 32 32" fill="none">
    <path
      d="M28 16C28 16.2652 27.8946 16.5196 27.7071 16.7071C27.5196 16.8946 27.2652 17 27 17H5C4.73478 17 4.48043 16.8946 4.29289 16.7071C4.10536 16.5196 4 16.2652 4 16C4 15.7348 4.10536 15.4804 4.29289 15.2929C4.48043 15.1054 4.73478 15 5 15H27C27.2652 15 27.5196 15.1054 27.7071 15.2929C27.8946 15.4804 28 15.7348 28 16ZM5 9H27C27.2652 9 27.5196 8.89464 27.7071 8.70711C27.8946 8.51957 28 8.26522 28 8C28 7.73478 27.8946 7.48043 27.7071 7.29289C27.5196 7.10536 27.2652 7 27 7H5C4.73478 7 4.48043 7.10536 4.29289 7.29289C4.10536 7.48043 4 7.73478 4 8C4 8.26522 4.10536 8.51957 4.29289 8.70711C4.48043 8.89464 4.73478 9 5 9ZM27 23H5C4.73478 23 4.48043 23.1054 4.29289 23.2929C4.10536 23.4804 4 23.7348 4 24C4 24.2652 4.10536 24.5196 4.29289 24.7071C4.48043 24.8946 4.73478 25 5 25H27C27.2652 25 27.5196 24.8946 27.7071 24.7071C27.8946 24.5196 28 24.2652 28 24C28 23.7348 27.8946 23.4804 27.7071 23.2929C27.5196 23.1054 27.2652 23 27 23Z"
      fill="#343330" />
  </svg>
</svg>