<!--
  IMPORTANT:
  1. Ensure each SVG element has a unique ID.
  2. Ensure each SVG element has a `viewBox` attribute.
  3. Remove the `width` and `height` attributes from each SVG element.
 -->

<svg width="0" height="0" class="hidden">

  <svg xmlns="http://www.w3.org/2000/svg" id="icon-cart" viewBox="0 0 32 32" fill="none">
    <path
      d="M12 27C12 27.3956 11.8827 27.7822 11.6629 28.1111C11.4432 28.44 11.1308 28.6964 10.7654 28.8478C10.3999 28.9991 9.99778 29.0387 9.60982 28.9616C9.22186 28.8844 8.86549 28.6939 8.58579 28.4142C8.30608 28.1345 8.1156 27.7781 8.03843 27.3902C7.96126 27.0022 8.00087 26.6001 8.15224 26.2346C8.30362 25.8692 8.55996 25.5568 8.88886 25.3371C9.21776 25.1173 9.60444 25 10 25C10.5304 25 11.0391 25.2107 11.4142 25.5858C11.7893 25.9609 12 26.4696 12 27ZM23 25C22.6044 25 22.2178 25.1173 21.8889 25.3371C21.56 25.5568 21.3036 25.8692 21.1522 26.2346C21.0009 26.6001 20.9613 27.0022 21.0384 27.3902C21.1156 27.7781 21.3061 28.1345 21.5858 28.4142C21.8655 28.6939 22.2219 28.8844 22.6098 28.9616C22.9978 29.0387 23.3999 28.9991 23.7654 28.8478C24.1308 28.6964 24.4432 28.44 24.6629 28.1111C24.8827 27.7822 25 27.3956 25 27C25 26.4696 24.7893 25.9609 24.4142 25.5858C24.0391 25.2107 23.5304 25 23 25ZM28.9562 9.29375L25.39 20.8825C25.2032 21.4968 24.8234 22.0346 24.3068 22.416C23.7903 22.7975 23.1646 23.0022 22.5225 23H10.5087C9.85747 22.9976 9.2245 22.7842 8.70463 22.3919C8.18477 21.9996 7.80598 21.4494 7.625 20.8237L3.1025 5H1C0.734784 5 0.48043 4.89464 0.292893 4.70711C0.105357 4.51957 0 4.26522 0 4C0 3.73478 0.105357 3.48043 0.292893 3.29289C0.48043 3.10536 0.734784 3 1 3H3.1025C3.53676 3.00144 3.95888 3.14349 4.30567 3.40487C4.65246 3.66626 4.90526 4.03293 5.02625 4.45L6.04 8H28C28.1565 7.99994 28.3108 8.03661 28.4505 8.10706C28.5903 8.17751 28.7115 8.27976 28.8045 8.40561C28.8976 8.53145 28.9597 8.67737 28.9861 8.83163C29.0124 8.98588 29.0022 9.14417 28.9562 9.29375ZM26.6462 10H6.61125L9.5475 20.275C9.60724 20.4839 9.73336 20.6676 9.90679 20.7984C10.0802 20.9292 10.2915 21 10.5087 21H22.5225C22.7365 21.0001 22.9448 20.9315 23.117 20.8044C23.2891 20.6773 23.4159 20.4983 23.4788 20.2938L26.6462 10Z"
      fill="#343330" />
  </svg>

  <svg xmlns="http://www.w3.org/2000/svg" id="icon-profile" viewBox="0 0 100 100" fill="none">
    <path
      d="M50 10C27.92 10 10 27.92 10 50C10 72.08 27.92 90 50 90C72.08 90 90 72.08 90 50C90 27.92 72.08 10 50 10ZM50 22C56.64 22 62 27.36 62 34C62 40.64 56.64 46 50 46C43.36 46 38 40.64 38 34C38 27.36 43.36 22 50 22ZM50 78.8C45.2474 78.8 40.5687 77.6239 36.3811 75.3766C32.1935 73.1292 28.6271 69.8804 26 65.92C26.12 57.96 42 53.6 50 53.6C57.96 53.6 73.88 57.96 74 65.92C71.3729 69.8804 67.8065 73.1292 63.6189 75.3766C59.4313 77.6239 54.7526 78.8 50 78.8Z"
      fill="white" />
  </svg>

  <svg id="icon-en" viewBox="0 0 51 51" fill="none" xmlns="http://www.w3.org/2000/svg">
    <g clip-path="url(#clip0_1_429)">
      <path
        d="M49.6501 41.4097H1.37456C0.898485 41.4097 0.512451 41.0237 0.512451 40.5476V9.51323C0.512451 9.03716 0.898485 8.65112 1.37456 8.65112H49.6502C50.1263 8.65112 50.5123 9.03716 50.5123 9.51323V40.5476C50.5122 41.0237 50.1262 41.4097 49.6501 41.4097Z"
        fill="#41479B" />
      <path
        d="M50.5123 9.51323C50.5123 9.03716 50.1262 8.65112 49.6501 8.65112H45.7932L29.8226 19.1147V8.65112H21.2019V19.1147L5.23138 8.65112H1.37456C0.898485 8.65112 0.512451 9.03716 0.512451 9.51323V11.7428L14.2144 20.72H0.512451V29.3407H14.2144L0.512451 38.318V40.5476C0.512451 41.0237 0.898485 41.4097 1.37456 41.4097H5.23148L21.2021 30.9462V41.4097H29.8228V30.9462L45.7934 41.4097H49.6503C50.1264 41.4097 50.5125 41.0237 50.5125 40.5476V38.318L36.8105 29.3408H50.5123V20.7201H36.8103L50.5123 11.7428V9.51323Z"
        fill="#F5F5F5" />
      <path
        d="M50.5123 22.4442H28.0986V8.65112H22.9261V22.4442H0.512451V27.6166H22.9261V41.4097H28.0986V27.6166H50.5123V22.4442Z"
        fill="#FF4B55" />
      <path
        d="M17.988 29.3408L0.537109 40.6686C0.598144 41.0849 0.941405 41.4098 1.3747 41.4098H2.5621L21.1548 29.3409H17.988V29.3408Z"
        fill="#FF4B55" />
      <path
        d="M34.3399 29.3408H31.1731L49.7388 41.3919C50.1715 41.3458 50.513 40.9925 50.513 40.5476V39.8388L34.3399 29.3408Z"
        fill="#FF4B55" />
      <path
        d="M0.513184 10.465L16.3119 20.7202H19.4786L1.01543 8.73529C0.720507 8.8723 0.513184 9.16673 0.513184 9.51331V10.465Z"
        fill="#FF4B55" />
      <path
        d="M32.9903 20.7203L50.4831 9.36513C50.4104 8.9626 50.0745 8.65137 49.651 8.65137H48.4159L29.8235 20.7203H32.9903Z"
        fill="#FF4B55" />
    </g>
    <defs>
      <clipPath id="clip0_1_429">
        <rect width="50" height="50" fill="white" transform="translate(0.511719 0.0305176)" />
      </clipPath>
    </defs>
  </svg>


  <svg xmlns="http://www.w3.org/2000/svg" id="icon-bg" viewBox="0 0 51 51" fill="none">
    <g clip-path="url(#clip0_1_3676)">
      <path
        d="M0.426857 30.9131H50.4268V40.9705C50.4268 41.4466 50.0407 41.8326 49.5647 41.8326H1.28896C0.812891 41.8326 0.426857 41.4466 0.426857 40.9705V30.9131Z"
        fill="#FF4B55" />
      <path
        d="M1.28896 9.07407H49.5648C50.0408 9.07407 50.4269 9.4601 50.4269 9.93617V19.9936H0.426857V9.93617C0.426857 9.4601 0.812891 9.07407 1.28896 9.07407Z"
        fill="#F5F5F5" />
      <path d="M50.4268 19.9934H0.426857V30.9123H50.4268V19.9934Z" fill="#73AF00" />
    </g>
    <defs>
      <clipPath id="clip0_1_3676">
        <rect width="50" height="50" fill="white" transform="translate(0.427734 0.453369)" />
      </clipPath>
    </defs>
  </svg>

  <svg xmlns="http://www.w3.org/2000/svg" id="icon-menu" viewBox="0 0 32 32" fill="none">
    <path
      d="M28 16C28 16.2652 27.8946 16.5196 27.7071 16.7071C27.5196 16.8946 27.2652 17 27 17H5C4.73478 17 4.48043 16.8946 4.29289 16.7071C4.10536 16.5196 4 16.2652 4 16C4 15.7348 4.10536 15.4804 4.29289 15.2929C4.48043 15.1054 4.73478 15 5 15H27C27.2652 15 27.5196 15.1054 27.7071 15.2929C27.8946 15.4804 28 15.7348 28 16ZM5 9H27C27.2652 9 27.5196 8.89464 27.7071 8.70711C27.8946 8.51957 28 8.26522 28 8C28 7.73478 27.8946 7.48043 27.7071 7.29289C27.5196 7.10536 27.2652 7 27 7H5C4.73478 7 4.48043 7.10536 4.29289 7.29289C4.10536 7.48043 4 7.73478 4 8C4 8.26522 4.10536 8.51957 4.29289 8.70711C4.48043 8.89464 4.73478 9 5 9ZM27 23H5C4.73478 23 4.48043 23.1054 4.29289 23.2929C4.10536 23.4804 4 23.7348 4 24C4 24.2652 4.10536 24.5196 4.29289 24.7071C4.48043 24.8946 4.73478 25 5 25H27C27.2652 25 27.5196 24.8946 27.7071 24.7071C27.8946 24.5196 28 24.2652 28 24C28 23.7348 27.8946 23.4804 27.7071 23.2929C27.5196 23.1054 27.2652 23 27 23Z"
      fill="#343330" />
  </svg>
</svg>